#!OML:ASF X:\für Bonn\!DataBase\2005_08_10_Bjorn_Final\c3d\bjorn.ASF
:FULLY-SPECIFIED
:DEGREES
153
root -18.0702 18.4577 -6.89025 -360.115 374.326 -368.898
lowerback 0.258135 7.01589 8.76492
upperback 8.13092 9.3794 -3.0935
thorax 10.6372 5.51186 -7.22394
lowerneck -6.37333 -0.875106 3.19199
upperneck 0.488242 -1.42347 1.03645
head 1.20186 -0.677051 -0.254595
rclavicle -1.1609e-013 3.81667e-014
rhumerus -34.9871 10.6342 -102.273
rradius 69.6009
rwrist 9.32179
rhand -29.7775 30.0909
rfingers 7.12502
rthumb -3.10263 0.133729
lclavicle -1.1609e-013 3.81667e-014
lhumerus -44.8337 -10.3298 94.4349
lradius 84.7765
lwrist -13.6915
lhand -53.1374 -29.8422
lfingers 7.12502
lthumb -25.5974 -1.54247
rfemur 6.15085 -5.63591 9.66128
rtibia 57.0746
rfoot 12.5875 13.039
rtoes -22.7544
lfemur -31.1424 8.13052 -27.9788
ltibia 40.4042
lfoot -11.0788 1.49395
ltoes 7.72288
154
root -17.9596 18.3532 -6.65505 -360.571 375.146 -368.455
lowerback 0.531975 6.7724 8.25189
upperback 8.43398 9.10383 -3.16728
thorax 10.6744 5.35806 -7.08128
lowerneck -6.19815 -0.8608 2.83437
upperneck -0.170773 -1.36229 1.34979
head 0.966634 -0.651689 -0.0914322
rclavicle -7.07673e-014 2.70347e-014
rhumerus -35.6105 9.50984 -101.901
rradius 67.7313
rwrist 8.99868
rhand -29.6076 30.4603
rfingers 7.12502
rthumb -2.93854 0.50085
lclavicle -7.07673e-014 2.70347e-014
lhumerus -43.5627 -9.87907 94.6546
lradius 85.7953
lwrist -13.4827
lhand -53.1709 -28.4866
lfingers 7.12502
lthumb -25.6294 -0.191492
rfemur 5.35639 -5.87856 8.53258
rtibia 60.3317
rfoot 12.7547 13.4122
rtoes -21.0498
lfemur -30.3873 6.88253 -28.6159
ltibia 41.7839
lfoot -11.861 2.17312
ltoes 9.84774
155
root -17.8492 18.25 -6.42534 -361.05 375.975 -368.03
lowerback 0.882621 6.51906 7.74694
upperback 8.769 8.81618 -3.21157
thorax 10.7002 5.19746 -6.91656
lowerneck -6.23905 -0.854879 2.52665
upperneck -0.652375 -1.32427 1.51113
head 0.824831 -0.636341 0.012083
rclavicle 4.6118e-014 0
rhumerus -36.2692 8.46456 -101.423
rradius 65.9318
rwrist 8.65942
rhand -29.3435 29.9262
rfingers 7.12502
rthumb -2.68341 -0.0367114
lclavicle 4.6118e-014 0
lhumerus -42.1911 -9.53887 94.9744
lradius 86.964
lwrist -12.9651
lhand -53.1228 -27.6531
lfingers 7.12502
lthumb -25.5834 0.648673
rfemur 4.39952 -6.11734 7.41054
rtibia 63.6287
rfoot 12.7984 13.8446
rtoes -20.5708
lfemur -29.4999 5.5922 -29.23
ltibia 43.1444
lfoot -12.7456 2.7531
ltoes 12.4312
156
root -17.7398 18.1472 -6.20031 -361.587 376.796 -367.607
lowerback 1.37656 6.27994 7.28003
upperback 9.09194 8.55548 -3.28524
thorax 10.6501 5.0528 -6.81474
lowerneck -6.26584 -0.859211 2.3628
upperneck -1.11238 -1.30858 1.62867
head 0.686876 -0.632165 0.0772218
rclavicle -6.04305e-014 3.97569e-014
rhumerus -36.8408 7.32145 -100.939
rradius 64.0427
rwrist 8.34996
rhand -29.1382 28.8966
rfingers 7.12502
rthumb -2.48521 -1.06869
lclavicle -6.04305e-014 3.97569e-014
lhumerus -40.8368 -9.47795 95.3292
lradius 88.3328
lwrist -12.1317
lhand -52.9094 -26.4565
lfingers 7.12502
lthumb -25.379 1.87447
rfemur 3.37858 -6.30548 6.289
rtibia 66.9032
rfoot 12.6341 14.1861
rtoes -20.6777
lfemur -28.4964 4.47878 -29.8812
ltibia 44.4492
lfoot -13.7026 3.16305
ltoes 14.6828
157
root -17.6316 18.0428 -5.98048 -362.076 377.551 -367.112
lowerback 1.88461 6.06839 6.72948
upperback 9.43606 8.3319 -3.35229
thorax 10.6107 4.91868 -6.65158
lowerneck -6.43315 -0.853964 2.16008
upperneck -1.48755 -1.28271 1.73361
head 0.599885 -0.620617 0.143692
rclavicle -1.47498e-013 3.97569e-014
rhumerus -37.3787 6.25861 -100.403
rradius 62.196
rwrist 7.80842
rhand -29.1299 27.8365
rfingers 7.12502
rthumb -2.4772 -2.1289
lclavicle -1.47498e-013 3.97569e-014
lhumerus -39.3678 -9.60695 95.7658
lradius 89.925
lwrist -10.7934
lhand -52.5313 -25.2446
lfingers 7.12502
lthumb -25.0167 3.13733
rfemur 2.22136 -6.42273 5.07409
rtibia 70.1456
rfoot 12.1977 14.4315
rtoes -20.9016
lfemur -27.4994 3.56205 -30.6443
ltibia 45.7099
lfoot -14.8174 3.42634
ltoes 16.8373
158
root -17.5234 17.9474 -5.76397 -362.441 378.3 -366.637
lowerback 2.32399 5.87518 6.16167
upperback 9.74247 8.12531 -3.42081
thorax 10.5737 4.78807 -6.46977
lowerneck -6.55806 -0.838238 1.96632
upperneck -1.96042 -1.23849 1.90185
head 0.475999 -0.600039 0.228681
rclavicle -4.25399e-014 7.95139e-015
rhumerus -37.96 5.18861 -99.8495
rradius 60.4059
rwrist 7.03577
rhand -29.3978 27.2488
rfingers 7.12502
rthumb -2.73585 -2.71339
lclavicle -4.25399e-014 7.95139e-015
lhumerus -37.8169 -9.97489 96.188
lradius 91.6869
lwrist -9.0199
lhand -52.0274 -24.1349
lfingers 7.12502
lthumb -24.5338 4.31341
rfemur 0.898818 -6.54116 3.92425
rtibia 73.2593
rfoot 11.7502 14.5582
rtoes -21.1733
lfemur -26.5943 2.8002 -31.4224
ltibia 46.8858
lfoot -16.0529 3.57779
ltoes 18.2807
159
root -17.4201 17.8519 -5.55412 -362.739 379.017 -366.348
lowerback 2.6988 5.70682 5.78123
upperback 10.0118 7.93739 -3.45387
thorax 10.5665 4.67885 -6.34272
lowerneck -6.73246 -0.830062 1.76955
upperneck -2.41392 -1.20405 2.10926
head 0.367116 -0.582897 0.325277
rclavicle -6.12257e-014 2.22639e-014
rhumerus -38.5945 4.13715 -99.2705
rradius 58.7428
rwrist 6.03531
rhand -29.7233 26.7985
rfingers 7.12502
rthumb -3.05021 -3.1594
lclavicle -6.12257e-014 2.22639e-014
lhumerus -36.1345 -10.5987 96.5893
lradius 93.483
lwrist -6.88809
lhand -51.5842 -23.3376
lfingers 7.12502
lthumb -24.1089 5.16764
rfemur -0.630602 -6.62996 3.05706
rtibia 76.2542
rfoot 11.3839 14.4681
rtoes -21.0861
lfemur -25.7959 2.08915 -32.0113
ltibia 47.9624
lfoot -17.3362 3.66854
ltoes 19.2312
160
root -17.3155 17.7677 -5.34751 -362.952 379.76 -366.124
lowerback 3.01224 5.55813 5.46133
upperback 10.2441 7.76755 -3.46505
thorax 10.5654 4.58004 -6.2169
lowerneck -6.92016 -0.84609 1.61656
upperneck -2.83327 -1.20468 2.25498
head 0.270597 -0.583449 0.394867
rclavicle -8.34896e-014 5.08889e-014
rhumerus -39.3054 3.02143 -98.6152
rradius 57.2024
rwrist 4.92283
rhand -29.9434 26.3406
rfingers 7.12502
rthumb -3.2628 -3.61415
lclavicle -8.34896e-014 5.08889e-014
lhumerus -34.3221 -11.547 96.9266
lradius 95.2035
lwrist -4.72613
lhand -51.2463 -22.6548
lfingers 7.12502
lthumb -23.7848 5.893
rfemur -2.28369 -6.74063 2.32341
rtibia 79.0295
rfoot 10.9332 14.1848
rtoes -20.4586
lfemur -25.0249 1.4898 -32.5444
ltibia 48.8746
lfoot -18.4772 3.69446
ltoes 19.8408
161
root -17.2079 17.6964 -5.14194 -363.207 380.482 -365.9
lowerback 3.38982 5.41869 5.17185
upperback 10.4994 7.61181 -3.47695
thorax 10.5631 4.49213 -6.11117
lowerneck -7.19571 -0.870169 1.45123
upperneck -3.16894 -1.21784 2.42524
head 0.214976 -0.5879 0.473274
rclavicle 1.09729e-013 -2.38542e-014
rhumerus -40.082 1.96821 -97.9608
rradius 55.9433
rwrist 3.5584
rhand -29.878 25.4939
rfingers 7.12502
rthumb -3.19962 -4.46182
lclavicle 1.09729e-013 -2.38542e-014
lhumerus -32.4243 -12.8011 97.1613
lradius 96.8759
lwrist -2.53314
lhand -51.1186 -22.3792
lfingers 7.12502
lthumb -23.6623 6.18456
rfemur -3.87688 -6.80701 1.63758
rtibia 81.526
rfoot 10.2346 13.82
rtoes -19.9013
lfemur -24.0839 1.12715 -33.0679
ltibia 49.5738
lfoot -19.4988 3.58649
ltoes 20.0445
162
root -17.095 17.6409 -4.93719 -363.553 381.226 -365.766
lowerback 3.85693 5.27689 5.00072
upperback 10.7563 7.45125 -3.47046
thorax 10.5275 4.41144 -6.05836
lowerneck -7.49023 -0.897295 1.35406
upperneck -3.46815 -1.24016 2.57055
head 0.173033 -0.596889 0.532699
rclavicle -7.31528e-014 3.18055e-014
rhumerus -40.9352 0.972688 -97.3172
rradius 54.8976
rwrist 2.03202
rhand -29.7143 24.4789
rfingers 7.12502
rthumb -3.04153 -5.47911
lclavicle -7.31528e-014 3.18055e-014
lhumerus -30.5088 -14.2929 97.2836
lradius 98.4614
lwrist -0.548519
lhand -51.2409 -22.3711
lfingers 7.12502
lthumb -23.7796 6.17742
rfemur -5.36255 -6.84951 1.12272
rtibia 83.6962
rfoot 9.33688 13.4849
rtoes -19.6838
lfemur -22.9151 0.890076 -33.4774
ltibia 50.0212
lfoot -20.4153 3.32261
ltoes 20.2285
